<?xml version="1.0" standalone="no"?>
<!DOCTYPE svg PUBLIC "-//W3C//DTD SVG 20010904//EN"
 "http://www.w3.org/TR/2001/REC-SVG-20010904/DTD/svg10.dtd">
<svg version="1.0" xmlns="http://www.w3.org/2000/svg"
 width="298.000000pt" height="202.000000pt" viewBox="0 0 298.000000 202.000000"
 preserveAspectRatio="xMidYMid meet">
<metadata>
Created by potrace 1.10, written by Peter Selinger 2001-2011
</metadata>
<g transform="translate(0.000000,202.000000) scale(0.100000,-0.100000)"
fill="#000000" stroke="none">
<path d="M1470 1820 c-46 -49 -90 -193 -114 -370 -11 -86 -55 -606 -61 -725
-8 -159 -15 -225 -24 -225 -16 0 -60 116 -90 235 -61 240 -103 585 -102 831 1
147 -9 199 -47 237 -23 23 -42 31 -81 35 -61 5 -102 -10 -136 -50 -21 -25 -25
-40 -25 -96 0 -76 -31 -361 -61 -562 -66 -440 -165 -704 -284 -756 -27 -11
-34 -10 -70 10 -46 27 -74 22 -100 -18 -29 -45 -3 -101 63 -135 38 -20 163
-16 213 7 161 72 233 245 303 723 40 271 42 274 71 129 30 -152 93 -402 136
-535 63 -199 93 -247 171 -280 73 -30 172 -13 198 34 5 11 12 118 14 238 6
261 41 703 72 888 22 137 39 217 55 258 26 65 24 103 -6 132 -32 33 -61 31
-95 -5z m71 -10 c24 -14 24 -41 -1 -90 -54 -105 -128 -761 -135 -1189 -3 -234
-2 -231 -88 -231 -59 0 -110 23 -138 61 -63 90 -219 689 -260 1004 -15 116
-17 124 -29 105 -6 -8 -10 -28 -10 -44 0 -33 -59 -435 -91 -624 -53 -313 -122
-461 -244 -524 -30 -16 -58 -21 -114 -21 -91 1 -126 21 -126 74 0 30 3 34 29
37 24 3 28 1 22 -14 -14 -37 52 -46 113 -15 134 69 234 337 305 821 32 216 47
349 53 472 6 118 8 129 30 150 46 43 151 20 173 -38 6 -14 10 -87 10 -162 0
-351 63 -773 152 -1019 32 -88 76 -147 101 -137 23 8 27 25 32 142 11 238 17
318 40 577 34 371 55 490 108 608 31 70 36 74 68 57z"/>
<path d="M2306 1795 c-250 -35 -462 -119 -553 -219 -72 -79 -88 -115 -88 -211
0 -101 26 -160 91 -207 24 -17 44 -35 44 -39 0 -4 -28 -28 -63 -52 -92 -66
-171 -156 -196 -222 -81 -216 9 -416 234 -521 135 -63 220 -79 405 -78 164 0
229 11 403 69 137 45 224 100 257 164 28 56 25 78 -14 117 -51 51 -96 44 -135
-21 -53 -90 -289 -151 -546 -142 -320 11 -502 117 -481 280 4 28 13 62 21 77
61 119 314 244 561 280 66 9 87 9 129 -4 47 -15 52 -15 75 2 60 44 63 121 8
167 l-32 27 -135 -9 c-235 -14 -349 -10 -403 14 -93 42 -99 97 -19 174 87 84
290 147 546 171 150 13 186 9 246 -32 53 -36 79 -37 107 -7 31 33 30 112 0
157 -41 60 -86 74 -233 77 -71 1 -175 -4 -229 -12z m384 -47 c51 -26 74 -74
63 -129 -8 -43 -29 -47 -66 -11 -44 42 -75 52 -170 52 -251 0 -560 -83 -671
-180 -71 -63 -97 -154 -56 -198 30 -32 86 -58 155 -72 48 -10 103 -10 274 0
205 13 215 12 227 -5 26 -35 11 -115 -20 -115 -8 0 -27 7 -42 15 -36 19 -77
19 -179 1 -285 -51 -522 -190 -570 -335 -36 -109 2 -214 100 -277 235 -150
746 -137 974 26 22 15 27 25 23 45 -4 22 -1 25 22 25 42 0 66 -17 66 -48 0
-89 -126 -163 -395 -232 -104 -27 -287 -36 -393 -21 -220 32 -397 135 -452
263 -34 78 -38 186 -10 261 40 107 133 199 274 273 41 22 64 39 56 42 -35 10
-117 55 -138 75 -42 39 -62 91 -62 159 1 172 142 288 442 362 134 34 214 43
373 45 117 1 135 -1 175 -21z"/>
</g>
</svg>
